<?xml version="1.0" encoding="utf-8"?>
<!-- Generator: Adobe Illustrator 17.1.0, SVG Export Plug-In . SVG Version: 6.00 Build 0)  -->
<!DOCTYPE svg PUBLIC "-//W3C//DTD SVG 1.1//EN" "http://www.w3.org/Graphics/SVG/1.1/DTD/svg11.dtd">
<svg version="1.1" id="Layer_1" xmlns="http://www.w3.org/2000/svg" xmlns:xlink="http://www.w3.org/1999/xlink" x="0px" y="0px"
	 viewBox="0 0 1000 641.7" enable-background="new 0 0 1000 641.7" xml:space="preserve">
<g>
	<g>
		<path fill="#4D4D4D" d="M95.5,597.7c-7.1,7.1-17.7,11-27.1,11c-26.7,0-37-18.6-37.1-36.5c-0.2-18,11.1-37.5,37.1-37.5
			c9.4,0,19,3.3,26.1,10.2l13.6-13.1c-11.1-10.9-25-16.5-39.6-16.5c-39,0-57.3,28.7-57.2,56.9c0.2,28.1,17.1,55.7,57.2,55.7
			c15.6,0,29.9-5.1,41-16L95.5,597.7z"/>
		<path fill="#4D4D4D" d="M215.1,622.3l-31.3-35.2c20.5-4.2,27.3-19.1,27.3-33.9c0-18.7-13.4-35.6-38.8-35.8
			c-17.1,0-34.2-0.2-51.3-0.2v108h20.4v-36.1h19.6l31.4,36.1h24.2v-1.4L215.1,622.3z M141.3,570.9v-34.5h31
			c12.8,0,18.5,8.6,18.5,17.3c0,8.6-5.5,17.3-18.5,17.3H141.3z"/>
		<path fill="#4D4D4D" d="M284.3,517.4h-22.2l-47.1,104.9l-1.3,3h22l37.5-85.3l37.3,85.3h22.2L284.3,517.4z"/>
		<g>
			<polygon fill="#4D4D4D" points="340.3,625.3 360.7,625.3 360.7,585.4 414.8,585.4 414.8,566.5 340.3,566.5 			"/>
			<polygon fill="#4D4D4D" points="430.3,517.5 340.3,517.5 340.3,537.1 464.6,537.1 464.6,625.4 484.9,625.4 484.9,537.1 
				519.1,537.1 519.1,536 519.1,517.5 			"/>
		</g>
		<path fill="#4D4D4D" d="M605.3,559.3c-12.9-1.5-24-4.1-24-13.6c0-8,7.3-14.3,22.4-14.3c11.7,0,21.9,5.9,25.6,12l16.2-8.3
			c-8.2-16.6-25.6-21.4-42.4-21.4c-19.9,0.2-41.8,9.2-41.8,31.4c0,24.2,20.4,30.1,42.4,32.7c14.3,1.5,25,5.7,25,15.9
			c0,11.7-12,16.2-24.8,16.2c-13.1,0-25.6-5.2-30.4-17.1l-16.9,8.8c8,19.7,25,26.5,47,26.5c24,0,45.3-10.3,45.3-34.4
			C648.8,568,627.8,562.1,605.3,559.3z"/>
		<path fill="#4D4D4D" d="M738,517.5V563h-53v-45.5h-20.4v107.9H685v-43.6h53v43.6h20.2V517.5H738z"/>
		<path fill="#4D4D4D" d="M828.1,515.2c-37.3,0-55.5,28.5-55.5,56.9c0,28.4,17.6,55.7,55.5,55.7s55-27.9,55.3-55.8
			C883.7,543.7,865.2,515.2,828.1,515.2z M828.1,609.1c-25.4,0-35-18.9-35.5-36.7c-0.5-18.2,10-38.7,35.5-38.7
			c25.4,0,35.6,20.4,35.3,38.5C863,590,853.5,609.1,828.1,609.1z"/>
		<path fill="#4D4D4D" d="M949.2,517.2c-17,0-33.9,0.2-50.9,0.2v107.9h20.4v-31.7h30.5C1002.1,593.5,1001.9,517.2,949.2,517.2z
			 M949.2,574.9h-30.5v-38.2h30.5C975.1,536.6,975.3,574.9,949.2,574.9z"/>
	</g>
	<g>
		<path fill="#C5986B" d="M357.8,90.2c-13.1,18.6-20.2,40.2-21.5,64.8c0,4.2,0,8.4,0,12.8c0,4.3,0.2,8.7,0.6,13.2
			c1.2,9.2,3.9,18.1,8,26.9c4.1,8.8,10.8,16.6,20.2,23.4c9.8,7.1,21.1,11.5,34,13.2c12.9,1.7,26.1,2.6,39.5,2.6c0.8,0,1.7,0,2.8,0
			c1,0,1.9,0,2.8,0l152-0.4l-43.6,49.1H440c-24.9,0-48.9-1.4-72-4.3c-23.1-2.9-44.9-9.6-65.3-20c-24.5-12.8-41.7-28.5-51.5-46.9
			c-9.8-18.5-15.1-37.4-15.9-56.7c-0.4-4.2-0.5-8.2-0.3-12.2c0.2-3.9,0.5-7.9,0.9-11.8c4.5-44.5,23.4-77.2,56.7-98.2
			C325.8,24.5,375.8,14,442.4,14l251.9-0.4L738,62H444.3C399.7,62.2,370.9,71.6,357.8,90.2z"/>
		<path fill="#C5986B" d="M642.2,335.3c13.1-18.6,20.2-40.2,21.5-64.8c0-4.2,0-8.4,0-12.8c0-4.3-0.2-8.7-0.6-13.2
			c-1.2-9.2-3.9-18.1-8-26.9c-4.1-8.8-10.8-16.6-20.2-23.4c-9.8-7.1-21.1-11.5-34-13.2c-12.9-1.7-26.1-2.6-39.5-2.6
			c-0.8,0-1.7,0-2.8,0c-1,0-1.9,0-2.8,0l-152,0.4l43.6-49.1H560c24.9,0,48.9,1.4,72,4.3c23.1,2.9,44.9,9.6,65.3,20
			c24.5,12.8,41.7,28.5,51.5,46.9c9.8,18.5,15.1,37.4,15.9,56.7c0.4,4.2,0.5,8.2,0.3,12.2c-0.2,3.9-0.5,7.9-0.9,11.8
			c-4.5,44.5-23.4,77.2-56.7,98.2c-33.3,20.9-83.3,31.4-149.9,31.4l-251.9,0.4L262,363.6h293.7C600.3,363.3,629.1,353.9,642.2,335.3
			z"/>
	</g>
</g>
</svg>
