<?xml version="1.0" encoding="utf-8"?>
<!-- Generator: Adobe Illustrator 17.1.0, SVG Export Plug-In . SVG Version: 6.00 Build 0)  -->
<!DOCTYPE svg PUBLIC "-//W3C//DTD SVG 1.1//EN" "http://www.w3.org/Graphics/SVG/1.1/DTD/svg11.dtd">
<svg version="1.1" id="Layer_1" xmlns="http://www.w3.org/2000/svg" xmlns:xlink="http://www.w3.org/1999/xlink" x="0px" y="0px"
	 viewBox="0 0 1000 182" enable-background="new 0 0 1000 182" xml:space="preserve">
<g>
	<g>
		<path fill="#4D4D4D" d="M326,111.1c-5.3,5.3-13.3,8.2-20.3,8.2c-20,0-27.7-14-27.9-27.4c-0.1-13.5,8.3-28.1,27.9-28.1
			c7.1,0,14.2,2.4,19.5,7.6l10.2-9.8c-8.3-8.2-18.7-12.4-29.7-12.4c-29.3,0-43,21.5-42.9,42.7c0.1,21,12.8,41.7,42.9,41.7
			c11.7,0,22.4-3.8,30.8-12L326,111.1z"/>
		<path fill="#4D4D4D" d="M415.7,129.6l-23.4-26.4c15.4-3.1,20.5-14.3,20.5-25.4c0-14-10.1-26.7-29.1-26.8
			c-12.8,0-25.7-0.1-38.5-0.1v81h15.3v-27.1H375l23.6,27.1h18.2v-1L415.7,129.6z M360.3,91V65.1h23.2c9.6,0,13.9,6.5,13.9,12.9
			c0,6.5-4.1,12.9-13.9,12.9H360.3z"/>
		<path fill="#4D4D4D" d="M467.6,50.9H451l-35.3,78.7l-1,2.2h16.5l28.1-63.9l28,63.9h16.6L467.6,50.9z"/>
		<g>
			<polygon fill="#4D4D4D" points="509.6,131.8 524.9,131.8 524.9,101.9 565.4,101.9 565.4,87.8 509.6,87.8 			"/>
			<polygon fill="#4D4D4D" points="577.1,51 509.6,51 509.6,65.7 602.8,65.7 602.8,131.9 618,131.9 618,65.7 643.7,65.7 643.7,64.9 
				643.7,51 			"/>
		</g>
		<path fill="#4D4D4D" d="M708.3,82.3c-9.7-1.2-18-3.1-18-10.2c0-6,5.4-10.8,16.8-10.8c8.8,0,16.4,4.4,19.2,9l12.1-6.3
			c-6.1-12.5-19.2-16.1-31.8-16.1c-14.9,0.1-31.3,6.9-31.3,23.6c0,18.2,15.3,22.5,31.8,24.5c10.8,1.1,18.7,4.3,18.7,11.9
			c0,8.8-9,12.1-18.6,12.1c-9.8,0-19.2-3.9-22.8-12.8l-12.7,6.6c6,14.8,18.7,19.9,35.3,19.9c18,0,34-7.7,34-25.8
			C740.9,88.8,725.2,84.4,708.3,82.3z"/>
		<path fill="#4D4D4D" d="M807.9,51v34.1h-39.8V51h-15.3v80.9h15.3V99.2h39.8v32.7H823V51H807.9z"/>
		<path fill="#4D4D4D" d="M875.4,49.3c-28,0-41.6,21.4-41.6,42.7s13.2,41.7,41.6,41.7c28.4,0,41.3-20.9,41.5-41.8
			C917.1,70.7,903.2,49.3,875.4,49.3z M875.4,119.7c-19.1,0-26.2-14.2-26.6-27.5c-0.3-13.6,7.5-29,26.6-29
			c19.1,0,26.7,15.3,26.5,28.9C901.6,105.3,894.5,119.7,875.4,119.7z"/>
		<path fill="#4D4D4D" d="M966.3,50.8c-12.7,0-25.4,0.1-38.2,0.1v80.9h15.3V108h22.9C1005.9,108,1005.8,50.8,966.3,50.8z M966.3,94
			h-22.9V65.3h22.9C985.7,65.3,985.8,94,966.3,94z"/>
	</g>
	<g>
		<path fill="#C5986B" d="M53.4,41.9c-5.2,7.5-8.1,16.1-8.6,26c0,1.7,0,3.4,0,5.1c0,1.7,0.1,3.5,0.2,5.3c0.5,3.7,1.6,7.3,3.2,10.8
			c1.6,3.5,4.3,6.6,8.1,9.4c3.9,2.8,8.5,4.6,13.6,5.3c5.2,0.7,10.4,1,15.9,1c0.3,0,0.7,0,1.1,0c0.4,0,0.8,0,1.1,0l61-0.2l-17.5,19.7
			H86.3c-10,0-19.6-0.6-28.9-1.7c-9.3-1.2-18-3.8-26.2-8c-9.8-5.1-16.7-11.4-20.7-18.8c-3.9-7.4-6.1-15-6.4-22.8
			C4,71.2,4,69.6,4.1,68c0.1-1.6,0.2-3.1,0.4-4.7c1.8-17.8,9.4-31,22.7-39.4c13.4-8.4,33.4-12.6,60.1-12.6l101-0.2l17.5,19.4H88
			C70.2,30.6,58.6,34.4,53.4,41.9z"/>
		<path fill="#C5986B" d="M167.4,140.1c5.2-7.5,8.1-16.1,8.6-26c0-1.7,0-3.4,0-5.1c0-1.7-0.1-3.5-0.2-5.3c-0.5-3.7-1.6-7.3-3.2-10.8
			c-1.6-3.5-4.3-6.6-8.1-9.4c-3.9-2.8-8.5-4.6-13.6-5.3c-5.2-0.7-10.4-1-15.9-1c-0.3,0-0.7,0-1.1,0c-0.4,0-0.8,0-1.1,0l-61,0.2
			l17.5-19.7h45.2c10,0,19.6,0.6,28.9,1.7c9.3,1.2,18,3.8,26.2,8c9.8,5.1,16.7,11.4,20.7,18.8c3.9,7.4,6.1,15,6.4,22.8
			c0.2,1.7,0.2,3.3,0.1,4.9c-0.1,1.6-0.2,3.1-0.4,4.7c-1.8,17.8-9.4,31-22.7,39.4c-13.4,8.4-33.4,12.6-60.1,12.6l-101,0.2L15,151.5
			h117.8C150.6,151.4,162.2,147.6,167.4,140.1z"/>
	</g>
</g>
</svg>
